<?xml version="1.0" encoding="iso-8859-1"?>
<!-- Generator: Adobe Illustrator 19.0.0, SVG Export Plug-In . SVG Version: 6.00 Build 0)  -->
<svg version="1.1" id="Capa_1" xmlns="http://www.w3.org/2000/svg" xmlns:xlink="http://www.w3.org/1999/xlink" x="0px" y="0px"
	 viewBox="0 0 502.69 502.69" style="enable-background:new 0 0 502.69 502.69;" xml:space="preserve">
<g>
	<g>
		<g>
			<path fill="white" d="M486.896,253.06H138.312c-13.352,0-29.077,9.772-34.966,21.743L9.621,464.713c-5.889,11.972,0.194,21.743,13.503,21.743
				h348.605c13.352,0,29.077-9.772,34.966-21.743l93.747-189.909C506.331,262.832,500.248,253.06,486.896,253.06z"/>
			<path fill="white" d="M138.312,228.771h258.785v-0.906h33.629V16.234H120.02v37.9H62.598v87.124H30.631C13.805,141.259,0,155.085,0,171.868
				V429.38l81.624-165.318C91.503,243.957,115.921,228.771,138.312,228.771z M89.627,81.119c4.379,0,15.337,0,30.393,0v119.718
				c-15.056,0-26.014,0-30.393,0C89.627,180.841,89.627,101.18,89.627,81.119z M403.74,43.241c0,21.398,0,136.219,0,157.596
				c-6.73,0-29.272,0-58.22,0c-16.588,0-127.57,0-198.451,0c0-21.377,0-136.198,0-157.596
				C170.323,43.241,380.444,43.241,403.74,43.241z"/>
		</g>
	</g>
	<g>
	</g>
	<g>
	</g>
	<g>
	</g>
	<g>
	</g>
	<g>
	</g>
	<g>
	</g>
	<g>
	</g>
	<g>
	</g>
	<g>
	</g>
	<g>
	</g>
	<g>
	</g>
	<g>
	</g>
	<g>
	</g>
	<g>
	</g>
	<g>
	</g>
</g>
<g>
</g>
<g>
</g>
<g>
</g>
<g>
</g>
<g>
</g>
<g>
</g>
<g>
</g>
<g>
</g>
<g>
</g>
<g>
</g>
<g>
</g>
<g>
</g>
<g>
</g>
<g>
</g>
<g>
</g>
</svg>
